<svg width="64" height="61" viewBox="0 0 64 61" fill="none" xmlns="http://www.w3.org/2000/svg">
<path d="M22.4561 5.53724C28.3985 2.26719 35.6015 2.26719 41.5439 5.53724L49.2107 9.75616C55.5343 13.236 59.4628 19.8818 59.4628 27.0997V33.9003C59.4628 41.1182 55.5343 47.764 49.2107 51.2438L41.5439 55.4628C35.6015 58.7328 28.3985 58.7328 22.4561 55.4628L14.7893 51.2438C8.46568 47.764 4.53719 41.1182 4.53719 33.9003V27.0997C4.53719 19.8818 8.46567 13.236 14.7893 9.75616L22.4561 5.53724Z" stroke="black" stroke-width="0.5"/>
<path d="M15.188 41.2339V41.3139C15.0973 41.3166 15.028 41.3273 14.98 41.3459C14.9347 41.3619 14.904 41.3939 14.888 41.4419C14.872 41.4873 14.864 41.5593 14.864 41.6579V43.6419C14.864 43.7379 14.872 43.8099 14.888 43.8579C14.904 43.9059 14.9347 43.9379 14.98 43.9539C15.028 43.9673 15.0973 43.9739 15.188 43.9739H15.48C15.6053 43.9739 15.7067 43.9606 15.784 43.9339C15.864 43.9073 15.9267 43.8659 15.972 43.8099C16.02 43.7513 16.056 43.6739 16.08 43.5779C16.104 43.4819 16.1227 43.3646 16.136 43.2259H16.228C16.22 43.3086 16.216 43.4179 16.216 43.5539C16.216 43.6046 16.2173 43.6779 16.22 43.7739C16.2253 43.8673 16.2333 43.9646 16.244 44.0659C16.108 44.0606 15.9547 44.0579 15.784 44.0579C15.6133 44.0553 15.4613 44.0539 15.328 44.0539C15.2693 44.0539 15.1933 44.0539 15.1 44.0539C15.0093 44.0539 14.9107 44.0553 14.804 44.0579C14.6973 44.0579 14.5893 44.0593 14.48 44.0619C14.3707 44.0619 14.2667 44.0633 14.168 44.0659V43.9859C14.2587 43.9806 14.3267 43.9699 14.372 43.9539C14.42 43.9379 14.452 43.9059 14.468 43.8579C14.484 43.8099 14.492 43.7379 14.492 43.6419V41.6579C14.492 41.5593 14.484 41.4873 14.468 41.4419C14.452 41.3939 14.42 41.3619 14.372 41.3459C14.3267 41.3273 14.2587 41.3166 14.168 41.3139V41.2339C14.224 41.2366 14.2973 41.2393 14.388 41.2419C14.4787 41.2446 14.576 41.2459 14.68 41.2459C14.7733 41.2459 14.8653 41.2446 14.956 41.2419C15.0493 41.2393 15.1267 41.2366 15.188 41.2339ZM17.5396 41.2339V41.3139C17.4489 41.3166 17.3796 41.3273 17.3316 41.3459C17.2862 41.3619 17.2556 41.3939 17.2396 41.4419C17.2236 41.4873 17.2156 41.5593 17.2156 41.6579V43.6419C17.2156 43.7379 17.2236 43.8099 17.2396 43.8579C17.2556 43.9059 17.2862 43.9379 17.3316 43.9539C17.3796 43.9699 17.4489 43.9806 17.5396 43.9859V44.0659C17.4782 44.0606 17.4009 44.0579 17.3076 44.0579C17.2169 44.0553 17.1249 44.0539 17.0316 44.0539C16.9276 44.0539 16.8302 44.0553 16.7396 44.0579C16.6489 44.0579 16.5756 44.0606 16.5196 44.0659V43.9859C16.6102 43.9806 16.6782 43.9699 16.7236 43.9539C16.7716 43.9379 16.8036 43.9059 16.8196 43.8579C16.8356 43.8099 16.8436 43.7379 16.8436 43.6419V41.6579C16.8436 41.5593 16.8356 41.4873 16.8196 41.4419C16.8036 41.3939 16.7716 41.3619 16.7236 41.3459C16.6782 41.3273 16.6102 41.3166 16.5196 41.3139V41.2339C16.5756 41.2366 16.6489 41.2393 16.7396 41.2419C16.8302 41.2446 16.9276 41.2459 17.0316 41.2459C17.1249 41.2459 17.2169 41.2446 17.3076 41.2419C17.4009 41.2393 17.4782 41.2366 17.5396 41.2339ZM18.895 41.2339V41.3139C18.8044 41.3166 18.735 41.3273 18.687 41.3459C18.6417 41.3619 18.611 41.3939 18.595 41.4419C18.579 41.4873 18.571 41.5593 18.571 41.6579V43.6419C18.571 43.7379 18.579 43.8099 18.595 43.8579C18.611 43.9059 18.6417 43.9379 18.687 43.9539C18.735 43.9673 18.8044 43.9739 18.895 43.9739H19.187C19.3124 43.9739 19.4137 43.9606 19.491 43.9339C19.571 43.9073 19.6337 43.8659 19.679 43.8099C19.727 43.7513 19.763 43.6739 19.787 43.5779C19.811 43.4819 19.8297 43.3646 19.843 43.2259H19.935C19.927 43.3086 19.923 43.4179 19.923 43.5539C19.923 43.6046 19.9244 43.6779 19.927 43.7739C19.9324 43.8673 19.9404 43.9646 19.951 44.0659C19.815 44.0606 19.6617 44.0579 19.491 44.0579C19.3204 44.0553 19.1684 44.0539 19.035 44.0539C18.9764 44.0539 18.9004 44.0539 18.807 44.0539C18.7164 44.0539 18.6177 44.0553 18.511 44.0579C18.4044 44.0579 18.2964 44.0593 18.187 44.0619C18.0777 44.0619 17.9737 44.0633 17.875 44.0659V43.9859C17.9657 43.9806 18.0337 43.9699 18.079 43.9539C18.127 43.9379 18.159 43.9059 18.175 43.8579C18.191 43.8099 18.199 43.7379 18.199 43.6419V41.6579C18.199 41.5593 18.191 41.4873 18.175 41.4419C18.159 41.3939 18.127 41.3619 18.079 41.3459C18.0337 41.3273 17.9657 41.3166 17.875 41.3139V41.2339C17.931 41.2366 18.0044 41.2393 18.095 41.2419C18.1857 41.2446 18.283 41.2459 18.387 41.2459C18.4804 41.2459 18.5724 41.2446 18.663 41.2419C18.7564 41.2393 18.8337 41.2366 18.895 41.2339ZM23.2187 41.2339C23.208 41.3353 23.2 41.4339 23.1947 41.5299C23.192 41.6233 23.1907 41.6953 23.1907 41.7459C23.1907 41.8099 23.192 41.8699 23.1947 41.9259C23.1974 41.9819 23.2 42.0313 23.2027 42.0739H23.1107C23.092 41.8873 23.0667 41.7406 23.0347 41.6339C23.0027 41.5246 22.9467 41.4459 22.8667 41.3979C22.7867 41.3499 22.6627 41.3259 22.4947 41.3259H22.2427C22.152 41.3259 22.0827 41.3339 22.0347 41.3499C21.9894 41.3633 21.9587 41.3939 21.9427 41.4419C21.9267 41.4873 21.9187 41.5593 21.9187 41.6579V43.6419C21.9187 43.7379 21.928 43.8099 21.9467 43.8579C21.968 43.9059 22.008 43.9379 22.0667 43.9539C22.1254 43.9699 22.2107 43.9806 22.3227 43.9859V44.0659C22.2534 44.0606 22.1654 44.0579 22.0587 44.0579C21.952 44.0553 21.844 44.0539 21.7347 44.0539C21.6307 44.0539 21.5334 44.0553 21.4427 44.0579C21.352 44.0579 21.2787 44.0606 21.2227 44.0659V43.9859C21.3134 43.9806 21.3814 43.9699 21.4267 43.9539C21.4747 43.9379 21.5067 43.9059 21.5227 43.8579C21.5387 43.8099 21.5467 43.7379 21.5467 43.6419V41.6579C21.5467 41.5593 21.5387 41.4873 21.5227 41.4419C21.5067 41.3939 21.4747 41.3619 21.4267 41.3459C21.3814 41.3273 21.3134 41.3166 21.2227 41.3139V41.2339C21.3214 41.2366 21.4254 41.2393 21.5347 41.2419C21.644 41.2419 21.752 41.2433 21.8587 41.2459C21.9654 41.2459 22.064 41.2459 22.1547 41.2459C22.248 41.2459 22.324 41.2459 22.3827 41.2459C22.5054 41.2459 22.644 41.2459 22.7987 41.2459C22.956 41.2433 23.096 41.2393 23.2187 41.2339ZM22.5987 42.6419C22.5987 42.6419 22.5987 42.6553 22.5987 42.6819C22.5987 42.7086 22.5987 42.7219 22.5987 42.7219H21.7987C21.7987 42.7219 21.7987 42.7086 21.7987 42.6819C21.7987 42.6553 21.7987 42.6419 21.7987 42.6419H22.5987ZM22.6747 42.1139C22.664 42.2659 22.6587 42.3819 22.6587 42.4619C22.6614 42.5419 22.6627 42.6153 22.6627 42.6819C22.6627 42.7486 22.664 42.8219 22.6667 42.9019C22.6694 42.9819 22.676 43.0979 22.6867 43.2499H22.5947C22.584 43.1646 22.5707 43.0819 22.5547 43.0019C22.5414 42.9193 22.5094 42.8526 22.4587 42.8019C22.4107 42.7486 22.328 42.7219 22.2107 42.7219V42.6419C22.2987 42.6419 22.3654 42.6246 22.4107 42.5899C22.4587 42.5526 22.4934 42.5059 22.5147 42.4499C22.536 42.3939 22.5507 42.3366 22.5587 42.2779C22.5667 42.2166 22.5747 42.1619 22.5827 42.1139H22.6747ZM23.5 41.2339C23.556 41.2366 23.6294 41.2393 23.72 41.2419C23.8107 41.2446 23.9 41.2459 23.988 41.2459C24.1134 41.2459 24.2334 41.2446 24.348 41.2419C24.4627 41.2393 24.544 41.2379 24.592 41.2379C24.808 41.2379 24.9867 41.2686 25.128 41.3299C25.272 41.3913 25.3787 41.4753 25.448 41.5819C25.52 41.6859 25.556 41.8033 25.556 41.9339C25.556 42.0139 25.54 42.0993 25.508 42.1899C25.476 42.2806 25.42 42.3659 25.34 42.4459C25.2627 42.5259 25.156 42.5926 25.02 42.6459C24.884 42.6966 24.712 42.7219 24.504 42.7219H24.12V42.6419H24.464C24.6534 42.6419 24.7974 42.6126 24.896 42.5539C24.9974 42.4926 25.0654 42.4126 25.1 42.3139C25.1374 42.2126 25.156 42.1006 25.156 41.9779C25.156 41.7673 25.1054 41.6046 25.004 41.4899C24.9054 41.3726 24.7347 41.3139 24.492 41.3139C24.3694 41.3139 24.2894 41.3366 24.252 41.3819C24.2147 41.4273 24.196 41.5193 24.196 41.6579V43.6419C24.196 43.7379 24.204 43.8099 24.22 43.8579C24.236 43.9059 24.2667 43.9379 24.312 43.9539C24.36 43.9699 24.4294 43.9806 24.52 43.9859V44.0659C24.4587 44.0606 24.3814 44.0579 24.288 44.0579C24.1974 44.0553 24.1054 44.0539 24.012 44.0539C23.908 44.0539 23.8107 44.0553 23.72 44.0579C23.6294 44.0579 23.556 44.0606 23.5 44.0659V43.9859C23.5907 43.9806 23.6587 43.9699 23.704 43.9539C23.752 43.9379 23.784 43.9059 23.8 43.8579C23.816 43.8099 23.824 43.7379 23.824 43.6419V41.6579C23.824 41.5593 23.816 41.4873 23.8 41.4419C23.784 41.3939 23.752 41.3619 23.704 41.3459C23.6587 41.3273 23.5907 41.3166 23.5 41.3139V41.2339ZM24.136 42.6539C24.28 42.6593 24.3934 42.6659 24.476 42.6739C24.5587 42.6793 24.6254 42.6846 24.676 42.6899C24.7294 42.6953 24.78 42.7019 24.828 42.7099C25.0067 42.7393 25.1347 42.7939 25.212 42.8739C25.292 42.9513 25.3507 43.0726 25.388 43.2379L25.488 43.6459C25.5147 43.7633 25.5414 43.8486 25.568 43.9019C25.5974 43.9526 25.6414 43.9766 25.7 43.9739C25.7454 43.9713 25.7827 43.9566 25.812 43.9299C25.844 43.9033 25.8774 43.8673 25.912 43.8219L25.972 43.8659C25.916 43.9486 25.8574 44.0126 25.796 44.0579C25.7374 44.1006 25.6534 44.1219 25.544 44.1219C25.4454 44.1219 25.3587 44.0926 25.284 44.0339C25.2094 43.9753 25.1534 43.8606 25.116 43.6899L25.028 43.2899C25.004 43.1753 24.976 43.0766 24.944 42.9939C24.9147 42.9086 24.872 42.8419 24.816 42.7939C24.7627 42.7459 24.6827 42.7219 24.576 42.7219H24.144L24.136 42.6539ZM27.1138 41.2339V41.3139C27.0231 41.3166 26.9538 41.3273 26.9058 41.3459C26.8604 41.3619 26.8298 41.3939 26.8138 41.4419C26.7978 41.4873 26.7898 41.5593 26.7898 41.6579V43.6419C26.7898 43.7379 26.7978 43.8099 26.8138 43.8579C26.8298 43.9059 26.8604 43.9379 26.9058 43.9539C26.9538 43.9699 27.0231 43.9806 27.1138 43.9859V44.0659C27.0524 44.0606 26.9751 44.0579 26.8818 44.0579C26.7911 44.0553 26.6991 44.0539 26.6058 44.0539C26.5018 44.0539 26.4044 44.0553 26.3138 44.0579C26.2231 44.0579 26.1498 44.0606 26.0938 44.0659V43.9859C26.1844 43.9806 26.2524 43.9699 26.2978 43.9539C26.3458 43.9379 26.3778 43.9059 26.3938 43.8579C26.4098 43.8099 26.4178 43.7379 26.4178 43.6419V41.6579C26.4178 41.5593 26.4098 41.4873 26.3938 41.4419C26.3778 41.3939 26.3458 41.3619 26.2978 41.3459C26.2524 41.3273 26.1844 41.3166 26.0938 41.3139V41.2339C26.1498 41.2366 26.2231 41.2393 26.3138 41.2419C26.4044 41.2446 26.5018 41.2459 26.6058 41.2459C26.6991 41.2459 26.7911 41.2446 26.8818 41.2419C26.9751 41.2393 27.0524 41.2366 27.1138 41.2339ZM29.4453 41.2339C29.4346 41.3273 29.4266 41.4179 29.4213 41.5059C29.4186 41.5939 29.4173 41.6606 29.4173 41.7059C29.4173 41.7539 29.4186 41.8006 29.4213 41.8459C29.4239 41.8886 29.4266 41.9246 29.4293 41.9539H29.3372C29.3213 41.7966 29.2986 41.6726 29.2693 41.5819C29.2399 41.4886 29.1893 41.4233 29.1173 41.3859C29.0479 41.3459 28.9426 41.3259 28.8013 41.3259H28.4693C28.3786 41.3259 28.3093 41.3339 28.2613 41.3499C28.2159 41.3633 28.1853 41.3939 28.1693 41.4419C28.1533 41.4873 28.1453 41.5593 28.1453 41.6579V43.6419C28.1453 43.7379 28.1533 43.8099 28.1693 43.8579C28.1853 43.9059 28.2159 43.9379 28.2613 43.9539C28.3093 43.9673 28.3786 43.9739 28.4693 43.9739H28.7613C28.9293 43.9739 29.0559 43.9513 29.1413 43.9059C29.2293 43.8606 29.2919 43.7873 29.3293 43.6859C29.3693 43.5819 29.3986 43.4419 29.4173 43.2659H29.5093C29.5013 43.3379 29.4973 43.4339 29.4973 43.5539C29.4973 43.6046 29.4986 43.6779 29.5013 43.7739C29.5066 43.8673 29.5146 43.9646 29.5253 44.0659C29.3893 44.0606 29.2359 44.0579 29.0653 44.0579C28.8946 44.0553 28.7426 44.0539 28.6093 44.0539C28.5506 44.0539 28.4746 44.0539 28.3813 44.0539C28.2906 44.0539 28.1919 44.0553 28.0853 44.0579C27.9786 44.0579 27.8706 44.0593 27.7613 44.0619C27.6519 44.0619 27.5479 44.0633 27.4493 44.0659V43.9859C27.5399 43.9806 27.6079 43.9699 27.6533 43.9539C27.7013 43.9379 27.7333 43.9059 27.7493 43.8579C27.7653 43.8099 27.7733 43.7379 27.7733 43.6419V41.6579C27.7733 41.5593 27.7653 41.4873 27.7493 41.4419C27.7333 41.3939 27.7013 41.3619 27.6533 41.3459C27.6079 41.3273 27.5399 41.3166 27.4493 41.3139V41.2339C27.5479 41.2366 27.6519 41.2393 27.7613 41.2419C27.8706 41.2419 27.9786 41.2433 28.0853 41.2459C28.1919 41.2459 28.2906 41.2459 28.3813 41.2459C28.4746 41.2459 28.5506 41.2459 28.6093 41.2459C28.7319 41.2459 28.8706 41.2459 29.0253 41.2459C29.1826 41.2433 29.3226 41.2393 29.4453 41.2339ZM28.7573 42.6019C28.7573 42.6019 28.7573 42.6153 28.7573 42.6419C28.7573 42.6686 28.7573 42.6819 28.7573 42.6819H28.0253C28.0253 42.6819 28.0253 42.6686 28.0253 42.6419C28.0253 42.6153 28.0253 42.6019 28.0253 42.6019H28.7573ZM28.8733 42.0739C28.8626 42.2259 28.8573 42.3419 28.8573 42.4219C28.8599 42.5019 28.8613 42.5753 28.8613 42.6419C28.8613 42.7086 28.8626 42.7819 28.8653 42.8619C28.8679 42.9419 28.8746 43.0579 28.8853 43.2099H28.7933C28.7826 43.1246 28.7693 43.0419 28.7533 42.9619C28.7399 42.8793 28.7079 42.8126 28.6573 42.7619C28.6093 42.7086 28.5266 42.6819 28.4093 42.6819V42.6019C28.4973 42.6019 28.5639 42.5846 28.6093 42.5499C28.6573 42.5126 28.6919 42.4659 28.7133 42.4099C28.7346 42.3539 28.7493 42.2966 28.7573 42.2379C28.7653 42.1766 28.7733 42.1219 28.7813 42.0739H28.8733ZM32.3988 41.2339V41.3139C32.3081 41.3166 32.2388 41.3299 32.1908 41.3539C32.1454 41.3779 32.1148 41.4166 32.0988 41.4699C32.0828 41.5233 32.0748 41.5993 32.0748 41.6979V44.0859C32.0588 44.0859 32.0428 44.0859 32.0268 44.0859C32.0134 44.0859 31.9988 44.0859 31.9828 44.0859L30.3028 41.4899V43.6019C30.3028 43.6979 30.3108 43.7739 30.3268 43.8299C30.3454 43.8833 30.3801 43.9219 30.4308 43.9459C30.4841 43.9673 30.5628 43.9806 30.6668 43.9859V44.0659C30.6188 44.0606 30.5561 44.0579 30.4788 44.0579C30.4014 44.0553 30.3281 44.0539 30.2588 44.0539C30.1921 44.0539 30.1241 44.0553 30.0548 44.0579C29.9881 44.0579 29.9321 44.0606 29.8868 44.0659V43.9859C29.9774 43.9806 30.0454 43.9673 30.0908 43.9459C30.1388 43.9219 30.1708 43.8833 30.1868 43.8299C30.2028 43.7739 30.2108 43.6979 30.2108 43.6019V41.6579C30.2108 41.5593 30.2028 41.4873 30.1868 41.4419C30.1708 41.3939 30.1388 41.3619 30.0908 41.3459C30.0454 41.3273 29.9774 41.3166 29.8868 41.3139V41.2339C29.9321 41.2366 29.9881 41.2393 30.0548 41.2419C30.1241 41.2446 30.1921 41.2459 30.2588 41.2459C30.3174 41.2459 30.3734 41.2446 30.4268 41.2419C30.4801 41.2393 30.5281 41.2366 30.5708 41.2339L31.9828 43.4099V41.6979C31.9828 41.5993 31.9734 41.5233 31.9548 41.4699C31.9388 41.4166 31.9041 41.3779 31.8508 41.3539C31.8001 41.3299 31.7228 41.3166 31.6188 41.3139V41.2339C31.6668 41.2366 31.7294 41.2393 31.8068 41.2419C31.8868 41.2446 31.9601 41.2459 32.0268 41.2459C32.0961 41.2459 32.1641 41.2446 32.2308 41.2419C32.3001 41.2393 32.3561 41.2366 32.3988 41.2339ZM33.803 41.2339C34.2803 41.2339 34.635 41.3539 34.867 41.5939C35.099 41.8313 35.215 42.1726 35.215 42.6179C35.215 42.9086 35.1576 43.1633 35.043 43.3819C34.931 43.5979 34.767 43.7659 34.551 43.8859C34.335 44.0059 34.0736 44.0659 33.767 44.0659C33.727 44.0659 33.6736 44.0646 33.607 44.0619C33.5403 44.0593 33.471 44.0579 33.399 44.0579C33.3296 44.0553 33.2656 44.0539 33.207 44.0539C33.1136 44.0539 33.0216 44.0553 32.931 44.0579C32.8403 44.0579 32.767 44.0606 32.711 44.0659V43.9859C32.8016 43.9806 32.8696 43.9699 32.915 43.9539C32.963 43.9379 32.995 43.9059 33.011 43.8579C33.027 43.8099 33.035 43.7379 33.035 43.6419V41.6579C33.035 41.5593 33.027 41.4873 33.011 41.4419C32.995 41.3939 32.963 41.3619 32.915 41.3459C32.8696 41.3273 32.8016 41.3166 32.711 41.3139V41.2339C32.767 41.2366 32.8403 41.2406 32.931 41.2459C33.0216 41.2486 33.111 41.2486 33.199 41.2459C33.2923 41.2433 33.3976 41.2406 33.515 41.2379C33.6323 41.2353 33.7283 41.2339 33.803 41.2339ZM33.703 41.3059C33.5803 41.3059 33.5003 41.3286 33.463 41.3739C33.4256 41.4193 33.407 41.5113 33.407 41.6499V43.6499C33.407 43.7886 33.4256 43.8806 33.463 43.9259C33.503 43.9713 33.5843 43.9939 33.707 43.9939C33.9976 43.9939 34.223 43.9419 34.383 43.8379C34.543 43.7313 34.655 43.5766 34.719 43.3739C34.783 43.1713 34.815 42.9246 34.815 42.6339C34.815 42.3353 34.779 42.0886 34.707 41.8939C34.6376 41.6966 34.5216 41.5499 34.359 41.4539C34.199 41.3553 33.9803 41.3059 33.703 41.3059ZM36.4576 41.1899C36.5909 41.1899 36.6923 41.2059 36.7616 41.2379C36.8309 41.2673 36.8923 41.3006 36.9456 41.3379C36.9776 41.3566 37.0029 41.3713 37.0216 41.3819C37.0429 41.3899 37.0629 41.3939 37.0816 41.3939C37.1083 41.3939 37.1269 41.3793 37.1376 41.3499C37.1509 41.3206 37.1616 41.2766 37.1696 41.2179H37.2616C37.2589 41.2633 37.2549 41.3179 37.2496 41.3819C37.2469 41.4433 37.2443 41.5259 37.2416 41.6299C37.2416 41.7313 37.2416 41.8659 37.2416 42.0339H37.1496C37.1416 41.9059 37.1136 41.7833 37.0656 41.6659C37.0176 41.5486 36.9469 41.4526 36.8536 41.3779C36.7629 41.3033 36.6429 41.2659 36.4936 41.2659C36.3523 41.2659 36.2349 41.3086 36.1416 41.3939C36.0509 41.4793 36.0056 41.5913 36.0056 41.7299C36.0056 41.8499 36.0363 41.9513 36.0976 42.0339C36.1589 42.1139 36.2403 42.1873 36.3416 42.2539C36.4456 42.3179 36.5576 42.3873 36.6776 42.4619C36.8163 42.5473 36.9389 42.6326 37.0456 42.7179C37.1549 42.8006 37.2403 42.8926 37.3016 42.9939C37.3656 43.0953 37.3976 43.2179 37.3976 43.3619C37.3976 43.5326 37.3589 43.6739 37.2816 43.7859C37.2043 43.8979 37.1016 43.9819 36.9736 44.0379C36.8456 44.0939 36.7043 44.1219 36.5496 44.1219C36.4083 44.1219 36.2963 44.1059 36.2136 44.0739C36.1309 44.0419 36.0603 44.0086 36.0016 43.9739C35.9429 43.9366 35.8976 43.9179 35.8656 43.9179C35.8389 43.9179 35.8189 43.9326 35.8056 43.9619C35.7949 43.9913 35.7856 44.0353 35.7776 44.0939H35.6856C35.6909 44.0379 35.6936 43.9726 35.6936 43.8979C35.6963 43.8206 35.6976 43.7206 35.6976 43.5979C35.7003 43.4753 35.7016 43.3206 35.7016 43.1339H35.7936C35.8043 43.2939 35.8336 43.4433 35.8816 43.5819C35.9323 43.7206 36.0083 43.8326 36.1096 43.9179C36.2136 44.0006 36.3509 44.0419 36.5216 44.0419C36.6096 44.0419 36.6923 44.0246 36.7696 43.9899C36.8496 43.9526 36.9149 43.8953 36.9656 43.8179C37.0163 43.7379 37.0416 43.6353 37.0416 43.5099C37.0416 43.4006 37.0149 43.3059 36.9616 43.2259C36.9109 43.1433 36.8389 43.0673 36.7456 42.9979C36.6523 42.9259 36.5429 42.8526 36.4176 42.7779C36.2923 42.7006 36.1749 42.6219 36.0656 42.5419C35.9563 42.4619 35.8683 42.3699 35.8016 42.2659C35.7376 42.1593 35.7056 42.0313 35.7056 41.8819C35.7056 41.7246 35.7403 41.5953 35.8096 41.4939C35.8816 41.3899 35.9749 41.3139 36.0896 41.2659C36.2043 41.2153 36.3269 41.1899 36.4576 41.1899ZM40.7538 41.2339C40.7432 41.3353 40.7352 41.4339 40.7298 41.5299C40.7272 41.6233 40.7258 41.6953 40.7258 41.7459C40.7258 41.8099 40.7272 41.8699 40.7298 41.9259C40.7325 41.9819 40.7352 42.0313 40.7378 42.0739H40.6458C40.6272 41.8873 40.6018 41.7406 40.5698 41.6339C40.5378 41.5246 40.4818 41.4459 40.4018 41.3979C40.3218 41.3499 40.1978 41.3259 40.0298 41.3259H39.7778C39.6872 41.3259 39.6178 41.3339 39.5698 41.3499C39.5245 41.3633 39.4938 41.3939 39.4778 41.4419C39.4618 41.4873 39.4538 41.5593 39.4538 41.6579V43.6419C39.4538 43.7379 39.4632 43.8099 39.4818 43.8579C39.5032 43.9059 39.5432 43.9379 39.6018 43.9539C39.6605 43.9699 39.7458 43.9806 39.8578 43.9859V44.0659C39.7885 44.0606 39.7005 44.0579 39.5938 44.0579C39.4872 44.0553 39.3792 44.0539 39.2698 44.0539C39.1658 44.0539 39.0685 44.0553 38.9778 44.0579C38.8872 44.0579 38.8138 44.0606 38.7578 44.0659V43.9859C38.8485 43.9806 38.9165 43.9699 38.9618 43.9539C39.0098 43.9379 39.0418 43.9059 39.0578 43.8579C39.0738 43.8099 39.0818 43.7379 39.0818 43.6419V41.6579C39.0818 41.5593 39.0738 41.4873 39.0578 41.4419C39.0418 41.3939 39.0098 41.3619 38.9618 41.3459C38.9165 41.3273 38.8485 41.3166 38.7578 41.3139V41.2339C38.8565 41.2366 38.9605 41.2393 39.0698 41.2419C39.1792 41.2419 39.2872 41.2433 39.3938 41.2459C39.5005 41.2459 39.5992 41.2459 39.6898 41.2459C39.7832 41.2459 39.8592 41.2459 39.9178 41.2459C40.0405 41.2459 40.1792 41.2459 40.3338 41.2459C40.4912 41.2433 40.6312 41.2393 40.7538 41.2339ZM40.1338 42.6419C40.1338 42.6419 40.1338 42.6553 40.1338 42.6819C40.1338 42.7086 40.1338 42.7219 40.1338 42.7219H39.3338C39.3338 42.7219 39.3338 42.7086 39.3338 42.6819C39.3338 42.6553 39.3338 42.6419 39.3338 42.6419H40.1338ZM40.2098 42.1139C40.1992 42.2659 40.1938 42.3819 40.1938 42.4619C40.1965 42.5419 40.1978 42.6153 40.1978 42.6819C40.1978 42.7486 40.1992 42.8219 40.2018 42.9019C40.2045 42.9819 40.2112 43.0979 40.2218 43.2499H40.1298C40.1192 43.1646 40.1058 43.0819 40.0898 43.0019C40.0765 42.9193 40.0445 42.8526 39.9938 42.8019C39.9458 42.7486 39.8632 42.7219 39.7458 42.7219V42.6419C39.8338 42.6419 39.9005 42.6246 39.9458 42.5899C39.9938 42.5526 40.0285 42.5059 40.0498 42.4499C40.0712 42.3939 40.0858 42.3366 40.0938 42.2779C40.1018 42.2166 40.1098 42.1619 40.1178 42.1139H40.2098ZM42.3121 41.1779C42.5655 41.1779 42.7868 41.2353 42.9761 41.3499C43.1681 41.4646 43.3161 41.6299 43.4201 41.8459C43.5268 42.0593 43.5801 42.3193 43.5801 42.6259C43.5801 42.9246 43.5255 43.1859 43.4161 43.4099C43.3095 43.6339 43.1601 43.8086 42.9681 43.9339C42.7761 44.0593 42.5561 44.1219 42.3081 44.1219C42.0548 44.1219 41.8321 44.0646 41.6401 43.9499C41.4508 43.8353 41.3028 43.6699 41.1961 43.4539C41.0921 43.2379 41.0401 42.9779 41.0401 42.6739C41.0401 42.3753 41.0948 42.1139 41.2041 41.8899C41.3135 41.6659 41.4628 41.4913 41.6521 41.3659C41.8441 41.2406 42.0641 41.1779 42.3121 41.1779ZM42.2961 41.2499C42.1228 41.2499 41.9721 41.3099 41.8441 41.4299C41.7161 41.5499 41.6161 41.7153 41.5441 41.9259C41.4748 42.1366 41.4401 42.3806 41.4401 42.6579C41.4401 42.9406 41.4788 43.1873 41.5561 43.3979C41.6361 43.6059 41.7428 43.7673 41.8761 43.8819C42.0121 43.9939 42.1615 44.0499 42.3241 44.0499C42.4975 44.0499 42.6481 43.9899 42.7761 43.8699C42.9041 43.7499 43.0028 43.5846 43.0721 43.3739C43.1441 43.1606 43.1801 42.9166 43.1801 42.6419C43.1801 42.3566 43.1401 42.1099 43.0601 41.9019C42.9828 41.6939 42.8775 41.5339 42.7441 41.4219C42.6108 41.3073 42.4615 41.2499 42.2961 41.2499ZM45.277 41.1779C45.5303 41.1779 45.7516 41.2353 45.941 41.3499C46.133 41.4646 46.281 41.6299 46.385 41.8459C46.4916 42.0593 46.545 42.3193 46.545 42.6259C46.545 42.9246 46.4903 43.1859 46.381 43.4099C46.2743 43.6339 46.125 43.8086 45.933 43.9339C45.741 44.0593 45.521 44.1219 45.273 44.1219C45.0196 44.1219 44.797 44.0646 44.605 43.9499C44.4156 43.8353 44.2676 43.6699 44.161 43.4539C44.057 43.2379 44.005 42.9779 44.005 42.6739C44.005 42.3753 44.0596 42.1139 44.169 41.8899C44.2783 41.6659 44.4276 41.4913 44.617 41.3659C44.809 41.2406 45.029 41.1779 45.277 41.1779ZM45.261 41.2499C45.0876 41.2499 44.937 41.3099 44.809 41.4299C44.681 41.5499 44.581 41.7153 44.509 41.9259C44.4396 42.1366 44.405 42.3806 44.405 42.6579C44.405 42.9406 44.4436 43.1873 44.521 43.3979C44.601 43.6059 44.7076 43.7673 44.841 43.8819C44.977 43.9939 45.1263 44.0499 45.289 44.0499C45.4623 44.0499 45.613 43.9899 45.741 43.8699C45.869 43.7499 45.9676 43.5846 46.037 43.3739C46.109 43.1606 46.145 42.9166 46.145 42.6419C46.145 42.3566 46.105 42.1099 46.025 41.9019C45.9476 41.6939 45.8423 41.5339 45.709 41.4219C45.5756 41.3073 45.4263 41.2499 45.261 41.2499ZM47.9866 41.2339C48.4639 41.2339 48.8186 41.3539 49.0506 41.5939C49.2826 41.8313 49.3986 42.1726 49.3986 42.6179C49.3986 42.9086 49.3412 43.1633 49.2266 43.3819C49.1146 43.5979 48.9506 43.7659 48.7346 43.8859C48.5186 44.0059 48.2572 44.0659 47.9506 44.0659C47.9106 44.0659 47.8572 44.0646 47.7906 44.0619C47.7239 44.0593 47.6546 44.0579 47.5826 44.0579C47.5132 44.0553 47.4492 44.0539 47.3906 44.0539C47.2972 44.0539 47.2052 44.0553 47.1146 44.0579C47.0239 44.0579 46.9506 44.0606 46.8946 44.0659V43.9859C46.9852 43.9806 47.0532 43.9699 47.0986 43.9539C47.1466 43.9379 47.1786 43.9059 47.1946 43.8579C47.2106 43.8099 47.2186 43.7379 47.2186 43.6419V41.6579C47.2186 41.5593 47.2106 41.4873 47.1946 41.4419C47.1786 41.3939 47.1466 41.3619 47.0986 41.3459C47.0532 41.3273 46.9852 41.3166 46.8946 41.3139V41.2339C46.9506 41.2366 47.0239 41.2406 47.1146 41.2459C47.2052 41.2486 47.2946 41.2486 47.3826 41.2459C47.4759 41.2433 47.5812 41.2406 47.6986 41.2379C47.8159 41.2353 47.9119 41.2339 47.9866 41.2339ZM47.8866 41.3059C47.7639 41.3059 47.6839 41.3286 47.6466 41.3739C47.6092 41.4193 47.5906 41.5113 47.5906 41.6499V43.6499C47.5906 43.7886 47.6092 43.8806 47.6466 43.9259C47.6866 43.9713 47.7679 43.9939 47.8906 43.9939C48.1812 43.9939 48.4066 43.9419 48.5666 43.8379C48.7266 43.7313 48.8386 43.5766 48.9026 43.3739C48.9666 43.1713 48.9986 42.9246 48.9986 42.6339C48.9986 42.3353 48.9626 42.0886 48.8906 41.8939C48.8212 41.6966 48.7052 41.5499 48.5426 41.4539C48.3826 41.3553 48.1639 41.3059 47.8866 41.3059Z" fill="black"/>
<path d="M49.2743 34.016C47.5104 34.476 43.4812 34.8992 41.4759 32.9121C37.0197 30.9802 28.8314 28.8827 31.728 35.9479C33.7704 38.0638 38.5794 40.6397 41.4759 34.016C41.5688 32.2681 40.3062 27.8892 34.5131 24.3566L31.728 19.5426M31.728 19.5426C33.4328 17.8867 32.8757 11.3854 31.728 10.0053C30.9976 9.12722 27.8288 6.69358 22.2585 10.0054C21.887 10.3735 20.8831 10.1524 19.1948 10.7567M31.728 19.5426C29.9185 22.1921 27.6318 19.9001 26.7147 18.4229M17.8023 11.3853C18.3096 11.1097 18.7735 10.9075 19.1948 10.7567M17.8023 11.3853L19.1948 10.7567M17.8023 11.3853C17.8023 11.7605 17.791 12.6794 17.8023 13.0319M26.7147 18.4229L26.1577 15.4029M26.7147 18.4229C26.0601 18.46 24.8962 18.5964 24.334 18.5609M26.7147 18.4229L24.334 18.5609M24.334 18.5609C23.6421 20.6768 21.7352 25.7799 21.7352 30.858C21.1781 31.7779 20.3088 34.016 19.1948 34.016C17.8023 34.016 15.5741 39.2597 21.1444 37.6038C25.6006 36.2791 27.086 34.66 27.2717 34.016C28.6643 32.9121 27.8625 24.3566 26.1577 30.858C26.1577 34.1698 25.4335 35.396 30.3354 37.6038M24.334 18.5609C23.0279 18.4785 21.9819 18.288 21.1444 18.0005M19.1948 10.7567C20.3088 12.7075 18.7306 13.0863 17.8023 13.0319M17.8023 13.0319C17.86 14.8407 18.138 15.7842 19.1948 16.8466M19.1948 16.8466C19.668 17.3224 20.3002 17.7107 21.1444 18.0005M19.1948 16.8466L21.1444 18.0005M21.1444 18.0005C23.8063 17.5522 24.3799 16.7195 24.334 16.3591" stroke="black" stroke-width="0.5"/>
<line x1="7.92926" y1="39.1228" x2="52.1063" y2="39.1228" stroke="black" stroke-width="0.5"/>
<path d="M27.3054 14.2985C26.8412 13.3786 25.4672 11.6491 23.6848 12.0907" stroke="black" stroke-width="0.5"/>
<path d="M27.5329 17.5634C27.5785 17.8144 27.6741 18.0541 27.8143 18.2688C27.9545 18.4836 28.1365 18.6692 28.3499 18.8151C28.5634 18.961 28.8041 19.0643 29.0584 19.1191C29.3126 19.1739 29.5753 19.1791 29.8316 19.1345C30.0879 19.0899 30.3328 18.9963 30.5521 18.859C30.7714 18.7217 30.961 18.5435 31.11 18.3345C31.259 18.1255 31.3645 17.8898 31.4205 17.6409C31.4765 17.392 31.4818 17.1347 31.4362 16.8837L31.2165 16.922C31.2569 17.1447 31.2522 17.373 31.2025 17.5939C31.1528 17.8148 31.0592 18.0239 30.927 18.2094C30.7948 18.3949 30.6265 18.553 30.4319 18.6748C30.2372 18.7966 30.02 18.8797 29.7926 18.9193C29.5651 18.9589 29.3319 18.9543 29.1063 18.9056C28.8807 18.857 28.6671 18.7653 28.4777 18.6359C28.2883 18.5064 28.1268 18.3417 28.0024 18.1511C27.878 17.9605 27.7931 17.7478 27.7527 17.5251L27.5329 17.5634Z" fill="black"/>
<path d="M27.5329 17.5634C27.5785 17.8144 27.6741 18.0541 27.8143 18.2688C27.9545 18.4836 28.1365 18.6692 28.3499 18.8151C28.5634 18.961 28.8041 19.0643 29.0584 19.1191C29.3126 19.1739 29.5753 19.1791 29.8316 19.1345C30.0879 19.0899 30.3328 18.9963 30.5521 18.859C30.7714 18.7217 30.961 18.5435 31.11 18.3345C31.259 18.1255 31.3645 17.8898 31.4205 17.6409C31.4765 17.392 31.4818 17.1347 31.4362 16.8837L31.2165 16.922C31.2569 17.1447 31.2522 17.373 31.2025 17.5939C31.1528 17.8148 31.0592 18.0239 30.927 18.2094C30.7948 18.3949 30.6265 18.553 30.4319 18.6748C30.2372 18.7966 30.02 18.8797 29.7926 18.9193C29.5651 18.9589 29.3319 18.9543 29.1063 18.9056C28.8807 18.857 28.6671 18.7653 28.4777 18.6359C28.2883 18.5064 28.1268 18.3417 28.0024 18.1511C27.878 17.9605 27.7931 17.7478 27.7527 17.5251L27.5329 17.5634ZM27.5329 17.5634L27.6547 17.6409" stroke="black" stroke-width="0.5"/>
<path d="M23.2212 21.6274L23.7876 19.9637H27.1858C28.1298 20.9804 30.4141 22.4037 32 19.9637L33.1327 21.6274H23.2212Z" fill="#FF1F1F" stroke="#FF0000" stroke-width="0.5"/>
<ellipse cx="22.938" cy="21.3501" rx="1.41593" ry="1.38636" fill="#FFF500"/>
</svg>
